<svg id="SvgjsSvg1001" width="1639" height="697.75" xmlns="http://www.w3.org/2000/svg" version="1.1" xmlns:xlink="http://www.w3.org/1999/xlink" xmlns:svgjs="http://svgjs.com/svgjs"><defs id="SvgjsDefs1002"><marker id="SvgjsMarker1078" markerWidth="14" markerHeight="10" refX="10" refY="5" viewBox="0 0 14 10" orient="auto" markerUnits="userSpaceOnUse" stroke-dasharray="0,0"><path id="SvgjsPath1079" d="M0,0 L14,5 L0,10 L0,0" fill="#000000" stroke="#000000" stroke-width="1"></path></marker><marker id="SvgjsMarker1082" markerWidth="14" markerHeight="10" refX="10" refY="5" viewBox="0 0 14 10" orient="auto" markerUnits="userSpaceOnUse" stroke-dasharray="0,0"><path id="SvgjsPath1083" d="M0,0 L14,5 L0,10 L0,0" fill="#000000" stroke="#000000" stroke-width="1"></path></marker><marker id="SvgjsMarker1088" markerWidth="14" markerHeight="10" refX="10" refY="5" viewBox="0 0 14 10" orient="auto" markerUnits="userSpaceOnUse" stroke-dasharray="0,0"><path id="SvgjsPath1089" d="M0,0 L14,5 L0,10 L0,0" fill="#000000" stroke="#000000" stroke-width="1"></path></marker><marker id="SvgjsMarker1092" markerWidth="12" markerHeight="8" refX="9" refY="4" viewBox="0 0 12 8" orient="auto" markerUnits="userSpaceOnUse" stroke-dasharray="0,0"><path id="SvgjsPath1093" d="M0,0 L12,4 L0,8 L0,0" fill="#000000" stroke="#000000" stroke-width="1"></path></marker><marker id="SvgjsMarker1140" markerWidth="14" markerHeight="10" refX="10" refY="5" viewBox="0 0 14 10" orient="auto" markerUnits="userSpaceOnUse" stroke-dasharray="0,0"><path id="SvgjsPath1141" d="M0,0 L14,5 L0,10 L0,0" fill="#323232" stroke="#323232" stroke-width="1"></path></marker><marker id="SvgjsMarker1158" markerWidth="14" markerHeight="10" refX="10" refY="5" viewBox="0 0 14 10" orient="auto" markerUnits="userSpaceOnUse" stroke-dasharray="0,0"><path id="SvgjsPath1159" d="M0,0 L14,5 L0,10 L0,0" fill="#323232" stroke="#323232" stroke-width="1"></path></marker><marker id="SvgjsMarker1181" markerWidth="14" markerHeight="10" refX="10" refY="5" viewBox="0 0 14 10" orient="auto" markerUnits="userSpaceOnUse" stroke-dasharray="0,0"><path id="SvgjsPath1182" d="M0,0 L14,5 L0,10 L0,0" fill="#323232" stroke="#323232" stroke-width="1"></path></marker><marker id="SvgjsMarker1205" markerWidth="14" markerHeight="10" refX="10" refY="5" viewBox="0 0 14 10" orient="auto" markerUnits="userSpaceOnUse" stroke-dasharray="0,0"><path id="SvgjsPath1206" d="M0,0 L14,5 L0,10 L0,0" fill="#323232" stroke="#323232" stroke-width="1"></path></marker><marker id="SvgjsMarker1229" markerWidth="14" markerHeight="10" refX="10" refY="5" viewBox="0 0 14 10" orient="auto" markerUnits="userSpaceOnUse" stroke-dasharray="0,0"><path id="SvgjsPath1230" d="M0,0 L14,5 L0,10 L0,0" fill="#323232" stroke="#323232" stroke-width="1"></path></marker></defs><g id="SvgjsG1008" transform="translate(243,158.75)"><path id="SvgjsPath1009" d="M 16.666666666666668 0L 83.33333333333333 0C 105.55555555555556 0 105.55555555555556 50 83.33333333333333 50L 16.666666666666668 50C -5.555555555555556 50 -5.555555555555556 0 16.666666666666668 0Z" stroke="none" fill-opacity="1" fill="#ff9999"></path><g id="SvgjsG1010"><text id="SvgjsText1011" font-family="微软雅黑" text-anchor="middle" font-size="15px" width="80px" fill="#ffffff" font-weight="700" align="middle" lineHeight="125%" anchor="middle" family="微软雅黑" size="15px" weight="700" font-style="" opacity="1" y="12.625" transform="rotate(0)"><tspan id="SvgjsTspan1012" dy="18" x="50"><tspan id="SvgjsTspan1013" style="text-decoration:;">START</tspan></tspan></text></g></g><g id="SvgjsG1014" transform="translate(725.5,158.75)"><path id="SvgjsPath1015" d="M 16.666666666666668 0L 139.33333333333334 0C 161.55555555555554 0 161.55555555555554 50 139.33333333333334 50L 16.666666666666668 50C -5.555555555555556 50 -5.555555555555556 0 16.666666666666668 0Z" stroke="rgba(0,0,0,1)" stroke-width="2" fill-opacity="1" fill="#c8e6c9"></path><g id="SvgjsG1016"><text id="SvgjsText1017" font-family="微软雅黑" text-anchor="middle" font-size="13px" width="136px" fill="#323232" font-weight="400" align="middle" lineHeight="125%" anchor="middle" family="微软雅黑" size="13px" weight="400" font-style="" opacity="1" y="14.375" transform="rotate(0)"><tspan id="SvgjsTspan1018" dy="16" x="78"><tspan id="SvgjsTspan1019" style="text-decoration:;font-weight: bold;">前进大番茄</tspan><tspan id="SvgjsTspan1020" style="text-decoration:;">45分钟</tspan></tspan></text></g></g><g id="SvgjsG1021" transform="translate(445.5,289.75)"><path id="SvgjsPath1022" d="M 16.666666666666668 0L 139.33333333333334 0C 161.55555555555554 0 161.55555555555554 50 139.33333333333334 50L 16.666666666666668 50C -5.555555555555556 50 -5.555555555555556 0 16.666666666666668 0Z" stroke="rgba(0,0,0,1)" stroke-width="2" fill-opacity="1" fill="#b2ebf2"></path><g id="SvgjsG1023"><text id="SvgjsText1024" font-family="微软雅黑" text-anchor="middle" font-size="13px" width="136px" fill="#323232" font-weight="400" align="middle" lineHeight="125%" anchor="middle" family="微软雅黑" size="13px" weight="400" font-style="" opacity="1" y="14.375" transform="rotate(0)"><tspan id="SvgjsTspan1025" dy="16" x="78"><tspan id="SvgjsTspan1026" style="text-decoration:;font-weight: bold;fill: rgb(50, 50, 50);">N个【前进+复习】番茄</tspan></tspan></text></g></g><g id="SvgjsG1027" transform="translate(731,289.75)"><path id="SvgjsPath1028" d="M 16.666666666666668 0L 139.33333333333334 0C 161.55555555555554 0 161.55555555555554 50 139.33333333333334 50L 16.666666666666668 50C -5.555555555555556 50 -5.555555555555556 0 16.666666666666668 0Z" stroke="rgba(234,152,112,1)" stroke-width="2" fill-opacity="1" fill="#e57373"></path><g id="SvgjsG1029"><text id="SvgjsText1030" font-family="微软雅黑" text-anchor="middle" font-size="13px" width="136px" fill="#323232" font-weight="400" align="middle" lineHeight="125%" anchor="middle" family="微软雅黑" size="13px" weight="400" font-style="" opacity="1" y="14.375" transform="rotate(0)"><tspan id="SvgjsTspan1031" dy="16" x="78"><tspan id="SvgjsTspan1032" style="text-decoration:;font-weight: bold;">复习小番茄</tspan><tspan id="SvgjsTspan1033" style="text-decoration:;">15分钟</tspan></tspan></text></g></g><g id="SvgjsG1034" transform="translate(1039,436.25)"><path id="SvgjsPath1035" d="M 16.666666666666668 0L 83.33333333333333 0C 105.55555555555556 0 105.55555555555556 50 83.33333333333333 50L 16.666666666666668 50C -5.555555555555556 50 -5.555555555555556 0 16.666666666666668 0Z" stroke="none" fill-opacity="1" fill="#99ccff"></path><g id="SvgjsG1036"><text id="SvgjsText1037" font-family="微软雅黑" text-anchor="middle" font-size="15px" width="80px" fill="#ffffff" font-weight="700" align="middle" lineHeight="125%" anchor="middle" family="微软雅黑" size="15px" weight="700" font-style="" opacity="1" y="12.625" transform="rotate(0)"><tspan id="SvgjsTspan1038" dy="18" x="50"><tspan id="SvgjsTspan1039" style="text-decoration:;">FINISH</tspan></tspan></text></g></g><g id="SvgjsG1040" transform="translate(464,436.75)"><path id="SvgjsPath1041" d="M 16.333333333333332 0L 114.66666666666667 0C 136.44444444444446 0 136.44444444444446 49 114.66666666666667 49L 16.333333333333332 49C -5.444444444444444 49 -5.444444444444444 0 16.333333333333332 0Z" stroke="rgba(227,98,126,1)" stroke-width="2" fill-opacity="1" fill="#c8e6c9"></path><g id="SvgjsG1042"><text id="SvgjsText1043" font-family="微软雅黑" text-anchor="middle" font-size="13px" width="111px" fill="#323232" font-weight="400" align="middle" lineHeight="125%" anchor="middle" family="微软雅黑" size="13px" weight="400" font-style="" opacity="1" y="13.875" transform="rotate(0)"><tspan id="SvgjsTspan1044" dy="16" x="65.5"><tspan id="SvgjsTspan1045" style="text-decoration:;font-weight: bold;">复习大番茄</tspan><tspan id="SvgjsTspan1046" style="text-decoration:;">45分钟</tspan></tspan></text></g></g><g id="SvgjsG1047" transform="translate(731.5,436.75)"><path id="SvgjsPath1048" d="M 16.333333333333332 0L 114.66666666666667 0C 136.44444444444446 0 136.44444444444446 49 114.66666666666667 49L 16.333333333333332 49C -5.444444444444444 49 -5.444444444444444 0 16.333333333333332 0Z" stroke="rgba(0,0,0,1)" stroke-width="2" fill-opacity="1" fill="#bbdefb"></path><g id="SvgjsG1049"><text id="SvgjsText1050" font-family="微软雅黑" text-anchor="middle" font-size="13px" width="111px" fill="#323232" font-weight="400" align="middle" lineHeight="125%" anchor="middle" family="微软雅黑" size="13px" weight="400" font-style="" opacity="1" y="13.875" transform="rotate(0)"><tspan id="SvgjsTspan1051" dy="16" x="65.5"><tspan id="SvgjsTspan1052" style="text-decoration:;font-weight: bold;">计划大番茄</tspan><tspan id="SvgjsTspan1053" style="text-decoration:;">30分钟</tspan></tspan></text></g></g><g id="SvgjsG1054" transform="translate(657,173.75)"><path id="SvgjsPath1055" d="M 0 10C 0 -3.3333333333333335 20 -3.3333333333333335 20 10C 20 23.333333333333332 0 23.333333333333332 0 10Z" stroke-dasharray="10,6" stroke="rgba(33,41,48,1)" stroke-width="1" fill-opacity="1" fill="#ffffff"></path><g id="SvgjsG1056"><text id="SvgjsText1057" font-family="微软雅黑" text-anchor="middle" font-size="13px" width="0px" fill="#323232" font-weight="400" align="middle" lineHeight="125%" anchor="middle" family="微软雅黑" size="13px" weight="400" font-style="" opacity="1" y="-0.625" transform="rotate(0)"></text></g></g><g id="SvgjsG1058" transform="translate(657,304.75)"><path id="SvgjsPath1059" d="M 0 10C 0 -3.3333333333333335 20 -3.3333333333333335 20 10C 20 23.333333333333332 0 23.333333333333332 0 10Z" stroke-dasharray="10,6" stroke="rgba(33,41,48,1)" stroke-width="1" fill-opacity="1" fill="#ffffff"></path><g id="SvgjsG1060"><text id="SvgjsText1061" font-family="微软雅黑" text-anchor="middle" font-size="13px" width="0px" fill="#323232" font-weight="400" align="middle" lineHeight="125%" anchor="middle" family="微软雅黑" size="13px" weight="400" font-style="" opacity="1" y="-0.625" transform="rotate(0)"></text></g></g><g id="SvgjsG1062" transform="translate(235,304.75)"><path id="SvgjsPath1063" d="M 0 10C 0 -3.3333333333333335 20 -3.3333333333333335 20 10C 20 23.333333333333332 0 23.333333333333332 0 10Z" stroke-dasharray="10,6" stroke="rgba(33,41,48,1)" stroke-width="1" fill-opacity="1" fill="#ffffff"></path><g id="SvgjsG1064"><text id="SvgjsText1065" font-family="微软雅黑" text-anchor="middle" font-size="13px" width="0px" fill="#323232" font-weight="400" align="middle" lineHeight="125%" anchor="middle" family="微软雅黑" size="13px" weight="400" font-style="" opacity="1" y="-0.625" transform="rotate(0)"></text></g></g><g id="SvgjsG1066" transform="translate(653,451.25)"><path id="SvgjsPath1067" d="M 0 10C 0 -3.3333333333333335 20 -3.3333333333333335 20 10C 20 23.333333333333332 0 23.333333333333332 0 10Z" stroke-dasharray="10,6" stroke="rgba(33,41,48,1)" stroke-width="1" fill-opacity="1" fill="#ffffff"></path><g id="SvgjsG1068"><text id="SvgjsText1069" font-family="微软雅黑" text-anchor="middle" font-size="13px" width="0px" fill="#323232" font-weight="400" align="middle" lineHeight="125%" anchor="middle" family="微软雅黑" size="13px" weight="400" font-style="" opacity="1" y="-0.625" transform="rotate(0)"></text></g></g><g id="SvgjsG1070" transform="translate(947,451.25)"><path id="SvgjsPath1071" d="M 0 10C 0 -3.3333333333333335 20 -3.3333333333333335 20 10C 20 23.333333333333332 0 23.333333333333332 0 10Z" stroke-dasharray="10,6" stroke="rgba(33,41,48,1)" stroke-width="1" fill-opacity="1" fill="#ffffff"></path><g id="SvgjsG1072"><text id="SvgjsText1073" font-family="微软雅黑" text-anchor="middle" font-size="13px" width="0px" fill="#323232" font-weight="400" align="middle" lineHeight="125%" anchor="middle" family="微软雅黑" size="13px" weight="400" font-style="" opacity="1" y="-0.625" transform="rotate(0)"></text></g></g><g id="SvgjsG1074"><path id="SvgjsPath1075" d="M343 183.75L398.25 183.75L398.25 183.75L452.5 183.75" stroke-dasharray="3,3" stroke="#000000" stroke-width="2" fill="none"></path></g><g id="SvgjsG1076"><path id="SvgjsPath1077" d="M677.5 183.75L701.25 183.75L701.25 183.75L721.9 183.75" stroke-dasharray="3,3" stroke="#000000" stroke-width="2" fill="none" marker-end="url(#SvgjsMarker1078)"></path></g><g id="SvgjsG1080"><path id="SvgjsPath1081" d="M882.4737059089377 183.97780869803358C 933.9461628720348 183.75 939.4461628720348 314.75 890.5016650829314 313.9143316166208" stroke-dasharray="3,3" stroke="#000000" stroke-width="2" fill="none" marker-end="url(#SvgjsMarker1082)"></path></g><g id="SvgjsG1084"><path id="SvgjsPath1085" d="M730 314.75L704 314.75L704 314.75L677.5 314.75" stroke-dasharray="3,3" stroke="#000000" stroke-width="2" fill="none"></path></g><g id="SvgjsG1086"><path id="SvgjsPath1087" d="M656.5 314.75L629.25 314.75L629.25 314.75L605.1 314.75" stroke-dasharray="3,3" stroke="#000000" stroke-width="2" fill="none" marker-end="url(#SvgjsMarker1088)"></path></g><g id="SvgjsG1090"><path id="SvgjsPath1091" d="M444.5 314.75L350.25 314.75L350.25 314.75L256.8 314.75" stroke-dasharray="3,3" stroke="#000000" stroke-width="1" fill="none" marker-end="url(#SvgjsMarker1092)"></path><rect id="SvgjsRect1094" width="128" height="20" x="286.65" y="304.75" fill="#ffffff"></rect><text id="SvgjsText1095" font-family="微软雅黑" text-anchor="middle" font-size="16px" width="128px" fill="#f44336" font-weight="700" align="top" lineHeight="20px" anchor="middle" family="微软雅黑" size="16px" weight="700" font-style="" opacity="1" y="300.75" transform="rotate(0)"><tspan id="SvgjsTspan1096" dy="20" x="350.65"><tspan id="SvgjsTspan1097" style="text-decoration:;">以小时为单位循环</tspan></tspan></text></g><g id="SvgjsG1098"><path id="SvgjsPath1099" d="M234.50730503479264 314.8351567452367C 197 315.75 25 468.75 463.00000112299335 461.25149866120114" stroke-dasharray="3,3" stroke="#000000" stroke-width="2" fill="none"></path></g><g id="SvgjsG1100"><path id="SvgjsPath1101" d="M596 461.25L624 461.25L624 461.25L652.5 461.25" stroke-dasharray="3,3" stroke="#000000" stroke-width="2" fill="none"></path></g><g id="SvgjsG1102"><path id="SvgjsPath1103" d="M673.5 461.25L702.25 461.25L702.25 461.25L730.5 461.25" stroke-dasharray="3,3" stroke="#000000" stroke-width="2" fill="none"></path></g><g id="SvgjsG1104"><path id="SvgjsPath1105" d="M863.5 461.25L904.75 461.25L904.75 461.25L946.5 461.25" stroke-dasharray="3,3" stroke="#000000" stroke-width="2" fill="none"></path></g><g id="SvgjsG1106"><path id="SvgjsPath1107" d="M967.5 461.25L1003 461.25L1003 461.25L1039 461.25" stroke-dasharray="3,3" stroke="#000000" stroke-width="2" fill="none"></path></g><g id="SvgjsG1108" transform="translate(477,208.75)"><path id="SvgjsPath1109" d="M 0 0L 93 0L 93 37L 0 37Z" stroke="none" fill="none"></path><g id="SvgjsG1110"><text id="SvgjsText1111" font-family="微软雅黑" text-anchor="middle" font-size="17px" width="93px" fill="#323232" font-weight="700" align="middle" lineHeight="125%" anchor="middle" family="微软雅黑" size="17px" weight="700" font-style="" opacity="1" y="3.875" transform="rotate(0)"><tspan id="SvgjsTspan1112" dy="21" x="46.5"><tspan id="SvgjsTspan1113" style="text-decoration:;">Step0</tspan></tspan></text></g></g><g id="SvgjsG1114" transform="translate(758,257.75)"><path id="SvgjsPath1115" d="M 0 0L 93 0L 93 37L 0 37Z" stroke="none" fill="none"></path><g id="SvgjsG1116"><text id="SvgjsText1117" font-family="微软雅黑" text-anchor="middle" font-size="17px" width="93px" fill="#323232" font-weight="700" align="middle" lineHeight="125%" anchor="middle" family="微软雅黑" size="17px" weight="700" font-style="" opacity="1" y="3.875" transform="rotate(0)"><tspan id="SvgjsTspan1118" dy="21" x="46.5"><tspan id="SvgjsTspan1119" style="text-decoration:;">Step2</tspan></tspan></text></g></g><g id="SvgjsG1120" transform="translate(477,257.75)"><path id="SvgjsPath1121" d="M 0 0L 93 0L 93 37L 0 37Z" stroke="none" fill="none"></path><g id="SvgjsG1122"><text id="SvgjsText1123" font-family="微软雅黑" text-anchor="middle" font-size="17px" width="93px" fill="#323232" font-weight="700" align="middle" lineHeight="125%" anchor="middle" family="微软雅黑" size="17px" weight="700" font-style="" opacity="1" y="3.875" transform="rotate(0)"><tspan id="SvgjsTspan1124" dy="21" x="46.5"><tspan id="SvgjsTspan1125" style="text-decoration:;">Step3</tspan></tspan></text></g></g><g id="SvgjsG1126" transform="translate(482.5,399.75)"><path id="SvgjsPath1127" d="M 0 0L 93 0L 93 37L 0 37Z" stroke="none" fill="none"></path><g id="SvgjsG1128"><text id="SvgjsText1129" font-family="微软雅黑" text-anchor="middle" font-size="17px" width="93px" fill="#323232" font-weight="700" align="middle" lineHeight="125%" anchor="middle" family="微软雅黑" size="17px" weight="700" font-style="" opacity="1" y="3.875" transform="rotate(0)"><tspan id="SvgjsTspan1130" dy="21" x="46.5"><tspan id="SvgjsTspan1131" style="text-decoration:;">Step4</tspan></tspan></text></g></g><g id="SvgjsG1132" transform="translate(750.5,399.75)"><path id="SvgjsPath1133" d="M 0 0L 93 0L 93 37L 0 37Z" stroke="none" fill="none"></path><g id="SvgjsG1134"><text id="SvgjsText1135" font-family="微软雅黑" text-anchor="middle" font-size="17px" width="93px" fill="#323232" font-weight="700" align="middle" lineHeight="125%" anchor="middle" family="微软雅黑" size="17px" weight="700" font-style="" opacity="1" y="3.875" transform="rotate(0)"><tspan id="SvgjsTspan1136" dy="21" x="46.5"><tspan id="SvgjsTspan1137" style="text-decoration:;">Step5</tspan></tspan></text></g></g><g id="SvgjsG1138"><path id="SvgjsPath1139" d="M803.5 157.75L803.5 114.25999999999999L1143.4 114.25999999999999" stroke="#323232" stroke-width="2" fill="none" marker-end="url(#SvgjsMarker1140)"></path></g><g id="SvgjsG1142" transform="translate(1147,65.75)"><path id="SvgjsPath1143" d="M 20 0L 0 0L 0 99L 20 99" stroke="rgba(33,41,48,1)" stroke-width="2" fill="none"></path><path id="SvgjsPath1144" d="M 0 0L 464 0L 464 99L 0 99Z" stroke="none" fill="none"></path><g id="SvgjsG1145"><text id="SvgjsText1146" font-family="微软雅黑" text-anchor="start" font-size="15px" width="444px" fill="#323232" font-weight="400" align="middle" lineHeight="125%" anchor="start" family="微软雅黑" size="15px" weight="400" font-style="" opacity="1" y="18.625" transform="rotate(0)"><tspan id="SvgjsTspan1147" dy="18" x="10"><tspan id="SvgjsTspan1148" style="text-decoration:;">1. 以笔记整理输出促进知识学习</tspan></tspan><tspan id="SvgjsTspan1149" dy="18" x="10"><tspan id="SvgjsTspan1150" style="text-decoration:;"> </tspan></tspan><tspan id="SvgjsTspan1151" dy="18" x="10"><tspan id="SvgjsTspan1152" style="text-decoration:;fill: rgb(244, 67, 54);font-weight: bold;">2. insComm插入重点标记📚，汇总在【</tspan><tspan id="SvgjsTspan1153" style="text-decoration:;">🎁 </tspan><tspan id="SvgjsTspan1154" style="text-decoration:;fill: rgb(211, 47, 47);font-weight: bold;">今日所得</tspan><tspan id="SvgjsTspan1155" style="text-decoration:;fill: rgb(244, 67, 54);font-weight: bold;">】</tspan></tspan></text></g></g><g id="SvgjsG1156"><path id="SvgjsPath1157" d="M809 340.75L809 374.75L1143.4 374.75" stroke="#323232" stroke-width="2" fill="none" marker-end="url(#SvgjsMarker1158)"></path><rect id="SvgjsRect1160" width="68" height="21" x="925.2" y="364.25" fill="#ffffff"></rect><text id="SvgjsText1161" font-family="微软雅黑" text-anchor="middle" font-size="17px" width="68px" fill="#d32f2f" font-weight="700" align="top" lineHeight="21px" anchor="middle" family="微软雅黑" size="17px" weight="700" font-style="" opacity="1" y="360.125" transform="rotate(0)"><tspan id="SvgjsTspan1162" dy="21" x="959.2"><tspan id="SvgjsTspan1163" style="text-decoration:;">时新笔记</tspan></tspan></text></g><g id="SvgjsG1164" transform="translate(1147,324.75)"><path id="SvgjsPath1165" d="M 20 0L 0 0L 0 100L 20 100" stroke="rgba(33,41,48,1)" stroke-width="2" fill="none"></path><path id="SvgjsPath1166" d="M 0 0L 467 0L 467 100L 0 100Z" stroke="none" fill="none"></path><g id="SvgjsG1167"><text id="SvgjsText1168" font-family="微软雅黑" text-anchor="start" font-size="15px" width="447px" fill="#323232" font-weight="400" align="middle" lineHeight="125%" anchor="start" family="微软雅黑" size="15px" weight="400" font-style="" opacity="1" y="19.125" transform="rotate(0)"><tspan id="SvgjsTspan1169" dy="18" x="10"><tspan id="SvgjsTspan1170" style="text-decoration:;">1. 快速回顾所学内容，并补充</tspan><tspan id="SvgjsTspan1171" style="text-decoration:;font-weight: bold;fill: rgb(244, 67, 54);">insComm</tspan></tspan><tspan id="SvgjsTspan1172" dy="18" x="10"><tspan id="SvgjsTspan1173" style="text-decoration:;"> </tspan></tspan><tspan id="SvgjsTspan1174" dy="18" x="10"><tspan id="SvgjsTspan1175" style="text-decoration:;">2. </tspan><tspan id="SvgjsTspan1176" style="text-decoration:;font-weight: bold;fill: rgb(27, 94, 32);text-decoration: underline;">重点记忆</tspan><tspan id="SvgjsTspan1177" style="text-decoration:;">当天日记中的</tspan><tspan id="SvgjsTspan1178" style="text-decoration:;fill: rgb(211, 47, 47);font-weight: bold;">【🎁 今日所得】</tspan></tspan></text></g></g><g id="SvgjsG1179"><path id="SvgjsPath1180" d="M529.5 486.75L529.5 596.2499999999999L511.6 596.2499999999999" stroke="#323232" stroke-width="2" fill="none" marker-end="url(#SvgjsMarker1181)"></path><rect id="SvgjsRect1183" width="68" height="21" x="495.5" y="539.9499999999999" fill="#ffffff"></rect><text id="SvgjsText1184" font-family="微软雅黑" text-anchor="middle" font-size="17px" width="68px" fill="#ff00ff" font-weight="700" align="top" lineHeight="21px" anchor="middle" family="微软雅黑" size="17px" weight="700" font-style="" opacity="1" y="535.8249999999999" transform="rotate(0)"><tspan id="SvgjsTspan1185" dy="21" x="529.5"><tspan id="SvgjsTspan1186" style="text-decoration:;">日新笔记</tspan></tspan></text></g><g id="SvgjsG1187" transform="translate(239,519.75)"><path id="SvgjsPath1188" d="M 224.16666666666666 0L 269 0L 269 150L 224.16666666666666 150" stroke="rgba(33,41,48,1)" stroke-width="2" fill="none"></path><path id="SvgjsPath1189" d="M 0 0L 269 0L 269 150L 0 150Z" stroke="none" fill="none"></path><g id="SvgjsG1190"><text id="SvgjsText1191" font-family="微软雅黑" text-anchor="start" font-size="15px" width="249px" fill="#323232" font-weight="400" align="middle" lineHeight="125%" anchor="start" family="微软雅黑" size="15px" weight="400" font-style="" opacity="1" y="25.125" transform="rotate(0)"><tspan id="SvgjsTspan1192" dy="18" x="10"><tspan id="SvgjsTspan1193" style="text-decoration:;fill: rgb(50, 50, 50);">1.  晚上9:30开始</tspan></tspan><tspan id="SvgjsTspan1194" dy="18" x="10"><tspan id="SvgjsTspan1195" style="text-decoration:;"> </tspan></tspan><tspan id="SvgjsTspan1196" dy="18" x="10"><tspan id="SvgjsTspan1197" style="text-decoration:;fill: rgb(50, 50, 50);">2. 将当天日记嵌入到000-RoadMap</tspan></tspan><tspan id="SvgjsTspan1198" dy="18" x="10"><tspan id="SvgjsTspan1199" style="text-decoration:;"> </tspan></tspan><tspan id="SvgjsTspan1200" dy="18" x="10"><tspan id="SvgjsTspan1201" style="text-decoration:;fill: rgb(50, 50, 50);">3. 复习回顾</tspan><tspan id="SvgjsTspan1202" style="text-decoration:;fill: rgb(211, 47, 47);font-weight: bold;">【🎁 今日所得】</tspan></tspan></text></g></g><g id="SvgjsG1203"><path id="SvgjsPath1204" d="M797 486.75L797 596.375L819.9 596.375" stroke="#323232" stroke-width="2" fill="none" marker-end="url(#SvgjsMarker1205)"></path></g><g id="SvgjsG1207" transform="translate(823.5,519.75)"><path id="SvgjsPath1208" d="M 20 0L 0 0L 0 153.25L 20 153.25" stroke="rgba(33,41,48,1)" stroke-width="2" fill="none"></path><path id="SvgjsPath1209" d="M 0 0L 303.5 0L 303.5 153.25L 0 153.25Z" stroke="none" fill="none"></path><g id="SvgjsG1210"><text id="SvgjsText1211" font-family="微软雅黑" text-anchor="start" font-size="15px" width="284px" fill="#323232" font-weight="400" align="middle" lineHeight="125%" anchor="start" family="微软雅黑" size="15px" weight="400" font-style="" opacity="1" y="45.75" transform="rotate(0)"><tspan id="SvgjsTspan1212" dy="18" x="10"><tspan id="SvgjsTspan1213" style="text-decoration:;">1.  做明天计划</tspan></tspan><tspan id="SvgjsTspan1214" dy="18" x="10"><tspan id="SvgjsTspan1215" style="text-decoration:;"> </tspan></tspan><tspan id="SvgjsTspan1216" dy="18" x="10"><tspan id="SvgjsTspan1217" style="text-decoration:;font-weight: bold;fill: rgb(244, 67, 54);">2. 进度总结！！！</tspan></tspan></text></g></g><g id="SvgjsG1218" transform="translate(453.5,159.75)"><path id="SvgjsPath1219" d="M 16.333333333333332 0L 114.66666666666667 0C 136.44444444444446 0 136.44444444444446 49 114.66666666666667 49L 16.333333333333332 49C -5.444444444444444 49 -5.444444444444444 0 16.333333333333332 0Z" stroke="rgba(227,98,126,1)" stroke-width="2" fill-opacity="1" fill="#c8e6c9"></path><g id="SvgjsG1220"><text id="SvgjsText1221" font-family="微软雅黑" text-anchor="middle" font-size="13px" width="111px" fill="#323232" font-weight="400" align="middle" lineHeight="125%" anchor="middle" family="微软雅黑" size="13px" weight="400" font-style="" opacity="1" y="13.875" transform="rotate(0)"><tspan id="SvgjsTspan1222" dy="16" x="65.5"><tspan id="SvgjsTspan1223" style="text-decoration:;font-weight: bold;">复习大番茄</tspan><tspan id="SvgjsTspan1224" style="text-decoration:;">45分钟</tspan></tspan></text></g></g><g id="SvgjsG1225"><path id="SvgjsPath1226" d="M585.5 184.25L620.75 184.25L620.75 184.25L656.5 184.25" stroke-dasharray="3,3" stroke="#323232" stroke-width="2" fill="none"></path></g><g id="SvgjsG1227"><path id="SvgjsPath1228" d="M519 158.75L519 71.80500000000002L502.6428571428572 71.80500000000002" stroke="#323232" stroke-width="2" fill="none" marker-end="url(#SvgjsMarker1229)"></path></g><g id="SvgjsG1231" transform="translate(227,25)"><path id="SvgjsPath1232" d="M 228.33333333333334 0L 274 0L 274 101.75L 228.33333333333334 101.75" stroke="rgba(33,41,48,1)" stroke-width="2" fill="none"></path><path id="SvgjsPath1233" d="M 0 0L 274 0L 274 101.75L 0 101.75Z" stroke="none" fill="none"></path><g id="SvgjsG1234"><text id="SvgjsText1235" font-family="微软雅黑" text-anchor="start" font-size="15px" width="254px" fill="#323232" font-weight="400" align="middle" lineHeight="125%" anchor="start" family="微软雅黑" size="15px" weight="400" font-style="" opacity="1" y="1" transform="rotate(0)"><tspan id="SvgjsTspan1236" dy="18" x="10"><tspan id="SvgjsTspan1237" style="text-decoration:;">1. 6:30开始</tspan></tspan><tspan id="SvgjsTspan1238" dy="18" x="10"><tspan id="SvgjsTspan1239" style="text-decoration:;"> </tspan></tspan><tspan id="SvgjsTspan1240" dy="18" x="10"><tspan id="SvgjsTspan1241" style="text-decoration:;">2. 当天日记中</tspan><tspan id="SvgjsTspan1242" style="text-decoration:;fill: rgb(244, 67, 54);font-weight: bold;">【🏆温故知新】</tspan></tspan><tspan id="SvgjsTspan1243" dy="18" x="10"><tspan id="SvgjsTspan1244" style="text-decoration:;"> </tspan></tspan><tspan id="SvgjsTspan1245" dy="18" x="10"><tspan id="SvgjsTspan1246" style="text-decoration:;fill: rgb(244, 67, 54);font-weight: bold;font-style: italic;">3. 只复习，不前进！！！</tspan></tspan></text></g></g><g id="SvgjsG1247" transform="translate(758,208.75)"><path id="SvgjsPath1248" d="M 0 0L 93 0L 93 37L 0 37Z" stroke="none" fill="none"></path><g id="SvgjsG1249"><text id="SvgjsText1250" font-family="微软雅黑" text-anchor="middle" font-size="17px" width="93px" fill="#323232" font-weight="700" align="middle" lineHeight="125%" anchor="middle" family="微软雅黑" size="17px" weight="700" font-style="" opacity="1" y="3.875" transform="rotate(0)"><tspan id="SvgjsTspan1251" dy="21" x="46.5"><tspan id="SvgjsTspan1252" style="text-decoration:;">Step1</tspan></tspan></text></g></g></svg>